# xmcd
#
# Track frame offsets:
#	150
#	16302
#	30517
#	45721
#	65236
#	76823
#	93847
#	107614
#	128009
#	142918
#
# Disc length: 2172 seconds
#
# Revision: 0
# Processed by: cddbd v1.4PL0 Copyright (c) Steve Scherf et al.
# Submitted via: EasyCDDAExtractor 4.5.0.2
#
DISCID=75087a0a
DTITLE=Martin Delray - What Kind of Man
DYEAR=1900
DGENRE=Country
TTITLE0=What Kind of Man
TTITLE1=Sometimes She Forgets
TTITLE2=Twang
TTITLE3=What Was I Thinking
TTITLE4=Trying To Keep A Few Things Warm
TTITLE5=Solid Rock
TTITLE6=The Wound
TTITLE7=Nobody Wants You
TTITLE8=Settlin' Up
TTITLE9=Ring Around The Moon
EXTD=
EXTT0=
EXTT1=
EXTT2=
EXTT3=
EXTT4=
EXTT5=
EXTT6=
EXTT7=
EXTT8=
EXTT9=
PLAYORDER=
